<?xml version="1.0" standalone="no"?>
<!DOCTYPE svg PUBLIC "-//W3C//DTD SVG 20010904//EN"
 "http://www.w3.org/TR/2001/REC-SVG-20010904/DTD/svg10.dtd">
<svg version="1.0" xmlns="http://www.w3.org/2000/svg"
 width="2048.000000pt" height="2048.000000pt" viewBox="0 0 2048.000000 2048.000000"
 preserveAspectRatio="xMidYMid meet">

<g transform="translate(0.000000,2048.000000) scale(0.100000,-0.100000)"
fill="#000000" stroke="none">
<path d="M0 10240 l0 -10240 10240 0 10240 0 0 10240 0 10240 -10240 0 -10240
0 0 -10240z m7935 2935 c429 -51 820 -201 1128 -434 109 -82 290 -264 373
-376 191 -255 306 -525 367 -865 31 -172 31 -180 31 -505 1 -304 -1 -339 -22
-450 -168 -876 -732 -1457 -1600 -1646 -278 -61 -284 -61 -637 -62 -220 -1
-362 3 -425 12 -97 13 -315 60 -403 86 -27 8 -53 12 -58 10 -4 -3 -10 -1 -13
4 -3 5 -30 15 -58 21 -59 14 -137 47 -279 119 -388 197 -682 498 -874 896 -75
155 -113 267 -160 474 -49 215 -59 338 -52 641 5 202 10 275 26 350 12 52 28
129 36 170 18 87 76 268 114 355 185 425 495 753 912 965 206 105 526 198 804
235 142 18 637 19 790 0z m4602 0 c357 -58 694 -242 895 -488 76 -94 90 -108
101 -104 12 4 42 83 62 161 43 166 205 329 387 390 114 38 205 49 353 43 207
-8 370 -73 489 -192 63 -64 135 -181 155 -251 26 -90 32 -547 28 -2089 -4
-1707 -1 -1592 -61 -1855 -125 -539 -434 -948 -911 -1207 -185 -99 -393 -173
-635 -224 -262 -55 -253 -54 -800 -54 -507 1 -518 1 -710 28 -107 15 -211 32
-230 37 -19 6 -129 33 -244 61 -391 95 -552 169 -651 301 -90 120 -116 198
-116 350 -1 238 77 404 240 512 83 55 146 71 256 63 85 -6 104 -12 285 -77
286 -104 585 -165 917 -190 146 -10 358 -1 488 21 338 58 543 199 657 449 55
120 74 255 83 592 l6 218 -38 -26 c-21 -14 -73 -63 -116 -110 -236 -254 -474
-383 -882 -481 -92 -22 -510 -21 -635 1 -347 62 -593 174 -847 387 -293 247
-527 658 -612 1079 -52 259 -56 300 -54 620 l1 305 46 210 c59 272 99 391 204
594 258 504 689 820 1252 921 137 24 500 27 637 5z m5743 0 c271 -29 568 -107
760 -201 220 -106 435 -286 558 -466 154 -225 253 -524 283 -858 9 -97 13
-429 13 -1165 1 -1062 -1 -1137 -39 -1221 -69 -152 -80 -170 -149 -238 -72
-73 -116 -99 -251 -153 -67 -27 -77 -28 -245 -28 l-175 1 -103 36 c-120 43
-195 94 -261 176 -94 117 -141 251 -141 404 0 42 -15 48 -34 12 -6 -10 -26
-36 -43 -57 -18 -20 -33 -42 -33 -48 0 -15 -91 -131 -159 -202 -72 -75 -189
-164 -271 -206 -36 -18 -119 -51 -185 -73 -110 -36 -135 -41 -288 -51 -224
-14 -442 0 -621 43 -127 29 -181 44 -221 61 -11 5 -44 18 -73 29 -167 64 -320
167 -473 320 -193 193 -285 351 -345 598 l-36 145 4 196 c4 184 6 203 37 316
125 455 468 681 1205 795 345 54 608 69 1180 70 l309 0 -5 173 c-5 145 -9 180
-27 226 -64 160 -196 252 -415 290 -76 14 -413 14 -531 1 -189 -21 -383 -70
-775 -194 -239 -76 -286 -77 -421 -11 -130 63 -200 148 -258 307 -49 135 -47
206 10 362 75 206 212 321 499 418 334 113 578 164 960 201 109 11 638 5 760
-8z m-16710 -19 c229 -64 364 -215 501 -558 41 -102 377 -972 449 -1163 21
-55 55 -143 75 -195 20 -52 47 -126 61 -164 13 -38 31 -80 39 -93 8 -12 22
-53 30 -90 20 -86 34 -115 54 -108 11 3 21 -5 29 -25 8 -17 17 -30 21 -30 10
0 29 63 37 125 6 54 19 76 37 69 9 -3 16 19 24 67 8 51 18 78 36 97 18 19 27
43 32 85 5 45 12 61 30 73 17 11 26 31 35 78 7 38 21 74 35 90 12 14 26 46 29
70 4 24 20 64 36 87 15 24 31 66 35 93 4 27 16 57 27 68 11 11 29 52 40 91 10
40 27 79 37 88 10 10 21 36 25 59 4 23 20 68 36 99 17 31 30 63 30 72 0 8 11
38 26 65 14 27 34 78 46 114 11 36 26 72 33 80 7 8 20 40 30 70 10 30 28 76
41 102 13 26 24 53 24 61 0 7 10 31 21 52 12 22 35 67 51 99 64 128 179 256
278 310 134 73 396 107 560 72 202 -42 362 -187 414 -376 33 -120 28 -369 -9
-440 -8 -16 -22 -50 -31 -77 -8 -26 -28 -75 -44 -108 -15 -33 -43 -96 -63
-140 -20 -44 -65 -145 -100 -225 -36 -80 -82 -183 -102 -230 -39 -90 -147
-331 -197 -440 -17 -36 -36 -82 -44 -103 -7 -21 -20 -50 -29 -65 -8 -15 -25
-52 -39 -82 -24 -57 -542 -1219 -763 -1715 -69 -154 -159 -356 -200 -450 -41
-93 -95 -212 -119 -264 -24 -51 -44 -95 -44 -98 0 -2 -21 -50 -46 -106 -25
-56 -52 -115 -59 -132 -161 -367 -231 -495 -333 -606 -68 -74 -150 -123 -280
-166 -103 -34 -112 -36 -262 -37 -136 -1 -164 2 -230 23 -158 48 -253 121
-329 248 -55 92 -70 145 -77 263 -11 192 12 300 111 505 14 28 31 70 40 94 8
23 24 54 35 68 11 14 20 33 20 43 0 9 15 46 34 81 18 35 39 81 45 101 7 20 18
42 26 48 8 6 21 37 30 68 9 31 28 69 41 85 13 16 27 46 30 67 4 21 15 48 26
60 30 32 48 84 48 139 0 48 -13 100 -29 111 -11 8 -41 76 -41 93 0 9 -5 19
-11 22 -6 4 -8 13 -5 20 2 7 -4 21 -14 30 -11 10 -27 40 -36 67 -9 27 -29 75
-45 106 -16 31 -29 62 -29 69 0 7 -16 43 -35 82 -19 38 -35 74 -35 80 0 6 -8
25 -18 43 -10 18 -40 85 -66 148 -48 114 -57 134 -142 323 -24 53 -44 100 -44
103 0 3 -12 31 -26 62 -15 31 -70 158 -124 282 -54 124 -132 302 -173 395 -41
94 -95 217 -120 275 -51 119 -86 198 -128 287 -16 34 -29 64 -29 68 0 8 -48
117 -101 233 -16 34 -29 64 -29 67 0 2 -12 30 -27 62 -38 85 -73 225 -80 328
-5 74 -2 105 16 175 32 124 56 166 140 250 105 104 205 154 374 186 94 18 350
12 427 -10z"/>
<path d="M7350 12075 c-274 -73 -446 -234 -544 -513 -106 -297 -98 -865 16
-1149 105 -263 308 -427 599 -484 92 -18 245 -6 361 29 386 115 571 455 572
1052 1 527 -128 826 -429 995 -108 60 -213 87 -355 92 -109 3 -137 0 -220 -22z"/>
<path d="M12575 12093 c-86 -20 -224 -69 -280 -101 -144 -79 -258 -216 -328
-390 -78 -193 -100 -466 -61 -732 19 -130 35 -190 78 -285 165 -360 547 -530
961 -425 151 38 246 92 350 201 121 126 198 282 232 464 18 99 21 425 5 545
-19 139 -68 275 -132 370 -160 237 -400 362 -689 359 -64 -1 -125 -3 -136 -6z"/>
<path d="M17809 10700 c-130 -10 -347 -64 -433 -107 -94 -48 -154 -110 -190
-200 -26 -64 -28 -80 -24 -160 3 -76 9 -98 40 -163 41 -83 105 -156 170 -194
24 -13 86 -39 138 -56 92 -32 97 -32 230 -27 119 4 146 9 229 37 232 80 391
227 473 434 30 76 32 91 38 251 3 94 4 176 2 183 -3 9 -69 12 -291 11 -157 -1
-329 -5 -382 -9z"/>
</g>
</svg>
